<svg xmlns="http://www.w3.org/2000/svg" viewBox="0 0 24 24" fill="none" shape-rendering="auto"><metadata xmlns:rdf="http://www.w3.org/1999/02/22-rdf-syntax-ns#" xmlns:xsi="http://www.w3.org/2001/XMLSchema-instance" xmlns:dc="http://purl.org/dc/elements/1.1/" xmlns:dcterms="http://purl.org/dc/terms/"><rdf:RDF><rdf:Description><dc:title>Bootstrap Icons</dc:title><dc:creator>The Bootstrap Authors</dc:creator><dc:source xsi:type="dcterms:URI">https://github.com/twbs/icons</dc:source><dcterms:license xsi:type="dcterms:URI">https://github.com/twbs/icons/blob/main/LICENSE</dcterms:license><dc:rights>„Bootstrap Icons” (https://github.com/twbs/icons) by „The Bootstrap Authors”, licensed under „MIT” (https://github.com/twbs/icons/blob/main/LICENSE)</dc:rights></rdf:Description></rdf:RDF></metadata><mask id="viewboxMask"><rect width="24" height="24" rx="0" ry="0" x="0" y="0" fill="#fff" /></mask><g mask="url(#viewboxMask)"><g transform="translate(4 4)"><g fill="#fff"><path d="M5.525 3.025a3.5 3.5 0 0 1 4.95 0 .5.5 0 1 0 .707-.707 4.5 4.5 0 0 0-6.364 0 .5.5 0 0 0 .707.707Z"/><path d="M6.94 4.44a1.5 1.5 0 0 1 2.12 0 .5.5 0 0 0 .708-.708 2.5 2.5 0 0 0-3.536 0 .5.5 0 0 0 .707.707l.001.001ZM2.5 11a.5.5 0 1 1 0-1 .5.5 0 0 1 0 1Zm4.5-.5a.5.5 0 1 0 1 0 .5.5 0 0 0-1 0Zm2.5.5a.5.5 0 1 1 0-1 .5.5 0 0 1 0 1Zm1.5-.5a.5.5 0 1 0 1 0 .5.5 0 0 0-1 0Zm2 0a.5.5 0 1 0 1 0 .5.5 0 0 0-1 0Z"/><path d="M2.974 2.342a.5.5 0 1 0-.948.316L3.806 8H1.5A1.5 1.5 0 0 0 0 9.5v2A1.5 1.5 0 0 0 1.5 13H2a.5.5 0 0 0 .5.5h2A.5.5 0 0 0 5 13h6a.5.5 0 0 0 .5.5h2a.5.5 0 0 0 .5-.5h.5a1.5 1.5 0 0 0 1.5-1.5v-2A1.5 1.5 0 0 0 14.5 8h-2.306l1.78-5.342a.499.499 0 0 0-.7-.619.5.5 0 0 0-.248.303L11.14 8H4.86L2.974 2.342ZM14.5 9a.5.5 0 0 1 .5.5v2a.5.5 0 0 1-.5.5h-13a.5.5 0 0 1-.5-.5v-2a.5.5 0 0 1 .5-.5h13Z"/><path d="M8.5 5.5a.5.5 0 1 1-1 0 .5.5 0 0 1 1 0Z"/></g></g></g></svg>