<svg xmlns="http://www.w3.org/2000/svg" viewBox="0 0 24 24" fill="none" shape-rendering="auto"><metadata xmlns:rdf="http://www.w3.org/1999/02/22-rdf-syntax-ns#" xmlns:xsi="http://www.w3.org/2001/XMLSchema-instance" xmlns:dc="http://purl.org/dc/elements/1.1/" xmlns:dcterms="http://purl.org/dc/terms/"><rdf:RDF><rdf:Description><dc:title>Bootstrap Icons</dc:title><dc:creator>The Bootstrap Authors</dc:creator><dc:source xsi:type="dcterms:URI">https://github.com/twbs/icons</dc:source><dcterms:license xsi:type="dcterms:URI">https://github.com/twbs/icons/blob/main/LICENSE</dcterms:license><dc:rights>„Bootstrap Icons” (https://github.com/twbs/icons) by „The Bootstrap Authors”, licensed under „MIT” (https://github.com/twbs/icons/blob/main/LICENSE)</dc:rights></rdf:Description></rdf:RDF></metadata><mask id="viewboxMask"><rect width="24" height="24" rx="0" ry="0" x="0" y="0" fill="#fff" /></mask><g mask="url(#viewboxMask)"><g transform="translate(4 4)"><path d="M4.98 4a.5.5 0 0 0-.39.188L1.54 8H6a.5.5 0 0 1 .5.5 1.5 1.5 0 1 0 3 0A.5.5 0 0 1 10 8h4.46l-3.05-3.812A.5.5 0 0 0 11.02 4H4.98Zm9.954 5H10.45a2.5 2.5 0 0 1-4.9 0H1.066l.32 2.562a.5.5 0 0 0 .497.438h12.234a.5.5 0 0 0 .496-.438L14.933 9h.001ZM3.809 3.563A1.5 1.5 0 0 1 4.981 3h6.038a1.5 1.5 0 0 1 1.172.563l3.7 4.625a.499.499 0 0 1 .105.374l-.39 3.124A1.5 1.5 0 0 1 14.117 13H1.883a1.5 1.5 0 0 1-1.489-1.314l-.39-3.124a.5.5 0 0 1 .106-.374l3.7-4.625h-.001Z" fill="#fff"/></g></g></svg>