<svg xmlns="http://www.w3.org/2000/svg" viewBox="0 0 24 24" fill="none" shape-rendering="auto"><metadata xmlns:rdf="http://www.w3.org/1999/02/22-rdf-syntax-ns#" xmlns:xsi="http://www.w3.org/2001/XMLSchema-instance" xmlns:dc="http://purl.org/dc/elements/1.1/" xmlns:dcterms="http://purl.org/dc/terms/"><rdf:RDF><rdf:Description><dc:title>Bootstrap Icons</dc:title><dc:creator>The Bootstrap Authors</dc:creator><dc:source xsi:type="dcterms:URI">https://github.com/twbs/icons</dc:source><dcterms:license xsi:type="dcterms:URI">https://github.com/twbs/icons/blob/main/LICENSE</dcterms:license><dc:rights>„Bootstrap Icons” (https://github.com/twbs/icons) by „The Bootstrap Authors”, licensed under „MIT” (https://github.com/twbs/icons/blob/main/LICENSE)</dc:rights></rdf:Description></rdf:RDF></metadata><mask id="viewboxMask"><rect width="24" height="24" rx="0" ry="0" x="0" y="0" fill="#fff" /></mask><g mask="url(#viewboxMask)"><g transform="translate(4 4)"><path d="M14 3a.703.703 0 0 1-.037.225l-1.684 10.104A2 2 0 0 1 10.305 15H5.694a2 2 0 0 1-1.973-1.671L2.037 3.225A.703.703 0 0 1 2 3c0-1.105 2.686-2 6-2s6 .895 6 2ZM3.215 4.207l1.493 8.957a1 1 0 0 0 .986.836h4.612a1 1 0 0 0 .986-.836l1.493-8.957C11.69 4.689 9.954 5 8 5c-1.954 0-3.69-.311-4.785-.793Z" fill="#fff"/></g></g></svg>