<svg xmlns="http://www.w3.org/2000/svg" viewBox="0 0 24 24" fill="none" shape-rendering="auto"><metadata xmlns:rdf="http://www.w3.org/1999/02/22-rdf-syntax-ns#" xmlns:xsi="http://www.w3.org/2001/XMLSchema-instance" xmlns:dc="http://purl.org/dc/elements/1.1/" xmlns:dcterms="http://purl.org/dc/terms/"><rdf:RDF><rdf:Description><dc:title>Bootstrap Icons</dc:title><dc:creator>The Bootstrap Authors</dc:creator><dc:source xsi:type="dcterms:URI">https://github.com/twbs/icons</dc:source><dcterms:license xsi:type="dcterms:URI">https://github.com/twbs/icons/blob/main/LICENSE</dcterms:license><dc:rights>„Bootstrap Icons” (https://github.com/twbs/icons) by „The Bootstrap Authors”, licensed under „MIT” (https://github.com/twbs/icons/blob/main/LICENSE)</dc:rights></rdf:Description></rdf:RDF></metadata><mask id="viewboxMask"><rect width="24" height="24" rx="0" ry="0" x="0" y="0" fill="#fff" /></mask><g mask="url(#viewboxMask)"><g transform="translate(4 4)"><g fill="#fff"><path d="M8 11a3 3 0 1 0 0-6 3 3 0 0 0 0 6Z"/><path d="M13.997 5.17a5 5 0 0 0-8.101-4.09A5 5 0 0 0 1.28 9.342a5 5 0 0 0 8.336 5.109 3.5 3.5 0 0 0 5.201-4.065 3.002 3.002 0 0 0-.822-5.216h.002Zm-1-.034a1 1 0 0 0 .668.977 2.001 2.001 0 0 1 .547 3.478 1 1 0 0 0-.341 1.113 2.5 2.5 0 0 1-3.715 2.905 1 1 0 0 0-1.262.152 4 4 0 0 1-6.67-4.087 1 1 0 0 0-.2-1 4 4 0 0 1 3.693-6.61 1 1 0 0 0 .8-.2 4 4 0 0 1 6.48 3.273v-.001Z"/></g></g></g></svg>