<svg xmlns="http://www.w3.org/2000/svg" viewBox="0 0 24 24" fill="none" shape-rendering="auto"><metadata xmlns:rdf="http://www.w3.org/1999/02/22-rdf-syntax-ns#" xmlns:xsi="http://www.w3.org/2001/XMLSchema-instance" xmlns:dc="http://purl.org/dc/elements/1.1/" xmlns:dcterms="http://purl.org/dc/terms/"><rdf:RDF><rdf:Description><dc:title>Bootstrap Icons</dc:title><dc:creator>The Bootstrap Authors</dc:creator><dc:source xsi:type="dcterms:URI">https://github.com/twbs/icons</dc:source><dcterms:license xsi:type="dcterms:URI">https://github.com/twbs/icons/blob/main/LICENSE</dcterms:license><dc:rights>„Bootstrap Icons” (https://github.com/twbs/icons) by „The Bootstrap Authors”, licensed under „MIT” (https://github.com/twbs/icons/blob/main/LICENSE)</dc:rights></rdf:Description></rdf:RDF></metadata><mask id="viewboxMask"><rect width="24" height="24" rx="0" ry="0" x="0" y="0" fill="#fff" /></mask><g mask="url(#viewboxMask)"><g transform="translate(4 4)"><path d="M5.757 1.071a.5.5 0 0 1 .172.686L3.383 6h9.234L10.07 1.757a.5.5 0 1 1 .858-.514L13.783 6H15a1 1 0 0 1 1 1v1a1 1 0 0 1-1 1v4.5a2.5 2.5 0 0 1-2.5 2.5h-9A2.5 2.5 0 0 1 1 13.5V9a1 1 0 0 1-1-1V7a1 1 0 0 1 1-1h1.217L5.07 1.243a.5.5 0 0 1 .686-.172h.001ZM2 9v4.5A1.5 1.5 0 0 0 3.5 15h9a1.5 1.5 0 0 0 1.5-1.5V9H2ZM1 7v1h14V7H1Zm3 3a.5.5 0 0 1 .5.5v3a.5.5 0 0 1-1 0v-3A.5.5 0 0 1 4 10Zm2 0a.5.5 0 0 1 .5.5v3a.5.5 0 0 1-1 0v-3A.5.5 0 0 1 6 10Zm2 0a.5.5 0 0 1 .5.5v3a.5.5 0 0 1-1 0v-3A.5.5 0 0 1 8 10Zm2 0a.5.5 0 0 1 .5.5v3a.5.5 0 0 1-1 0v-3a.5.5 0 0 1 .5-.5Zm2 0a.5.5 0 0 1 .5.5v3a.5.5 0 0 1-1 0v-3a.5.5 0 0 1 .5-.5Z" fill="#fff"/></g></g></svg>